<svg xmlns="http://www.w3.org/2000/svg" viewBox="0 0 128 128" role="img" aria-labelledby="title desc">
  <title id="title">Shiv Academy logo</title>
  <desc id="desc">An open book below a rising sun and star.</desc>
  <defs>
    <linearGradient id="academy-gradient" x1="18" y1="10" x2="110" y2="118" gradientUnits="userSpaceOnUse">
      <stop stop-color="#4F46E5"/>
      <stop offset="1" stop-color="#0EA5A4"/>
    </linearGradient>
    <linearGradient id="page-gradient" x1="27" y1="64" x2="101" y2="105" gradientUnits="userSpaceOnUse">
      <stop stop-color="#fff"/>
      <stop offset="1" stop-color="#DDF8F5"/>
    </linearGradient>
  </defs>
  <rect width="128" height="128" rx="35" fill="url(#academy-gradient)"/>
  <path d="M33 79c12-7 22-6 31 2V105c-10-8-20-8-31-2V79Zm62 0c-12-7-22-6-31 2V105c10-8 20-8 31-2V79Z" fill="url(#page-gradient)"/>
  <path d="M64 51c11 0 20 8 20 18H44c0-10 9-18 20-18Z" fill="#FCD34D"/>
  <path d="M64 33v10M46 41l7 7M82 41l-7 7M43 57H33M85 57h10" stroke="#FDE68A" stroke-width="4" stroke-linecap="round"/>
  <path d="m64 18 3 8 8 3-8 3-3 8-3-8-8-3 8-3 3-8Z" fill="#fff"/>
</svg>
